%TF.GenerationSoftware,KiCad,Pcbnew,(5.1.5)-2*%
%TF.CreationDate,2019-12-16T21:25:58-05:00*%
%TF.ProjectId,Game_Cat,47616d65-5f43-4617-942e-6b696361645f,2.8*%
%TF.SameCoordinates,Original*%
%TF.FileFunction,Legend,Bot*%
%TF.FilePolarity,Positive*%
%FSLAX46Y46*%
G04 Gerber Fmt 4.6, Leading zero omitted, Abs format (unit mm)*
G04 Created by KiCad (PCBNEW (5.1.5)-2) date 2019-12-16 21:25:58*
%MOMM*%
%LPD*%
G04 APERTURE LIST*
%ADD10C,1.270000*%
%ADD11C,0.300000*%
%ADD12C,0.381000*%
%ADD13C,0.127000*%
%ADD14C,0.304800*%
%ADD15C,0.119380*%
%ADD16C,0.099060*%
%ADD17C,0.095250*%
G04 APERTURE END LIST*
D10*
X218600233Y-98909810D02*
G75*
G03X193776600Y-71755000I-27411893J-134950D01*
G01*
D11*
X181857142Y-82250000D02*
X181785714Y-82178571D01*
X181642857Y-81964285D01*
X181571428Y-81821428D01*
X181500000Y-81607142D01*
X181428571Y-81250000D01*
X181428571Y-80964285D01*
X181500000Y-80607142D01*
X181571428Y-80392857D01*
X181642857Y-80250000D01*
X181785714Y-80035714D01*
X181857142Y-79964285D01*
X182428571Y-81107142D02*
X183571428Y-81107142D01*
X183000000Y-81678571D02*
X183000000Y-80535714D01*
X184142857Y-82250000D02*
X184214285Y-82178571D01*
X184357142Y-81964285D01*
X184428571Y-81821428D01*
X184500000Y-81607142D01*
X184571428Y-81250000D01*
X184571428Y-80964285D01*
X184500000Y-80607142D01*
X184428571Y-80392857D01*
X184357142Y-80250000D01*
X184214285Y-80035714D01*
X184142857Y-79964285D01*
D10*
X63857927Y-99189870D02*
G75*
G03X88681560Y-126344680I27411893J134950D01*
G01*
D12*
%TO.C,BAT1*%
X183926480Y-79517240D02*
X184226200Y-79517240D01*
X178625500Y-73517760D02*
X186626500Y-73517760D01*
X186626500Y-79517240D02*
X178625500Y-79517240D01*
X179925980Y-78016100D02*
X179925980Y-73517760D01*
X180627020Y-78016100D02*
X179925980Y-78016100D01*
X180627020Y-73517760D02*
X180627020Y-78016100D01*
X185326020Y-78016100D02*
X185326020Y-73517760D01*
X184624980Y-78016100D02*
X185326020Y-78016100D01*
X184624980Y-73517760D02*
X184624980Y-78016100D01*
X182125620Y-78516480D02*
X182125620Y-79517240D01*
X183126380Y-78516480D02*
X182125620Y-78516480D01*
X183126380Y-79517240D02*
X183126380Y-78516480D01*
X186225180Y-72016620D02*
X186626500Y-72016620D01*
X186225180Y-73517760D02*
X186225180Y-72016620D01*
X186425840Y-72016620D02*
X186425840Y-73517760D01*
X179026820Y-72016620D02*
X179026820Y-73517760D01*
X178826160Y-73517760D02*
X178826160Y-72016620D01*
X178625500Y-72016620D02*
X179026820Y-72016620D01*
X178625500Y-72016620D02*
X178625500Y-79517240D01*
X186626500Y-79517240D02*
X186626500Y-72016620D01*
D13*
%TO.C,C17*%
X171499913Y-83879520D02*
X173125513Y-83879520D01*
X173125513Y-86622720D02*
X171499913Y-86622720D01*
X171499913Y-86622720D02*
X171499913Y-83422320D01*
X171499913Y-83422320D02*
X173125513Y-83422320D01*
X173125513Y-83422320D02*
X173125513Y-86622720D01*
%TO.C,C18*%
X171487200Y-92000200D02*
X171487200Y-88799800D01*
X173112800Y-92000200D02*
X171487200Y-92000200D01*
X173112800Y-88799800D02*
X173112800Y-92000200D01*
X171487200Y-88799800D02*
X173112800Y-88799800D01*
X173112800Y-91543000D02*
X171487200Y-91543000D01*
%TO.C,C27*%
X167100200Y-114612800D02*
X163899800Y-114612800D01*
X167100200Y-112987200D02*
X167100200Y-114612800D01*
X163899800Y-112987200D02*
X167100200Y-112987200D01*
X163899800Y-114612800D02*
X163899800Y-112987200D01*
X164357000Y-114612800D02*
X164357000Y-112987200D01*
X166643000Y-112987200D02*
X166643000Y-114612800D01*
%TO.C,D3*%
X166917753Y-89477681D02*
X165515673Y-89477681D01*
X166917753Y-87679361D02*
X166917753Y-89477681D01*
X165515673Y-87679361D02*
X166917753Y-87679361D01*
X165515673Y-89477681D02*
X165515673Y-87679361D01*
X165515673Y-89078901D02*
X166917753Y-89078901D01*
X165515673Y-89177961D02*
X166917753Y-89177961D01*
X166917753Y-89279561D02*
X165515673Y-89279561D01*
X165515673Y-89378621D02*
X166917753Y-89378621D01*
%TO.C,D4*%
X95374460Y-79433420D02*
X98173540Y-79433420D01*
X98173540Y-79535020D02*
X95374460Y-79535020D01*
X95374460Y-79634080D02*
X98173540Y-79634080D01*
X98173540Y-79733140D02*
X95374460Y-79733140D01*
X98173540Y-79834740D02*
X95374460Y-79834740D01*
X98173540Y-79334360D02*
X98173540Y-83733640D01*
X98173540Y-83733640D02*
X95374460Y-83733640D01*
X95374460Y-83733640D02*
X95374460Y-79334360D01*
X95374460Y-79334360D02*
X98173540Y-79334360D01*
%TO.C,D5*%
X177167540Y-85003640D02*
X174368460Y-85003640D01*
X177167540Y-80604360D02*
X177167540Y-85003640D01*
X174368460Y-80604360D02*
X177167540Y-80604360D01*
X174368460Y-85003640D02*
X174368460Y-80604360D01*
X174368460Y-84503260D02*
X177167540Y-84503260D01*
X174368460Y-84604860D02*
X177167540Y-84604860D01*
X177167540Y-84703920D02*
X174368460Y-84703920D01*
X174368460Y-84802980D02*
X177167540Y-84802980D01*
X177167540Y-84904580D02*
X174368460Y-84904580D01*
%TO.C,Q6*%
X169582213Y-85934381D02*
X169582213Y-85273981D01*
X167677213Y-85934381D02*
X167677213Y-85273981D01*
X168629713Y-87331381D02*
X168629713Y-87991781D01*
X167131113Y-87331381D02*
X170128313Y-87331381D01*
X170128313Y-87331381D02*
X170128313Y-85934381D01*
X170128313Y-85934381D02*
X167131113Y-85934381D01*
X167131113Y-85934381D02*
X167131113Y-87331381D01*
%TO.C,R30*%
X172998514Y-77834321D02*
X172998514Y-81034721D01*
X171372914Y-77834321D02*
X172998514Y-77834321D01*
X171372914Y-81034721D02*
X171372914Y-77834321D01*
X172998514Y-81034721D02*
X171372914Y-81034721D01*
X172998514Y-80577521D02*
X171372914Y-80577521D01*
X171372914Y-78291521D02*
X172998514Y-78291521D01*
%TO.C,R31*%
X168883713Y-77351720D02*
X168883713Y-78977320D01*
X166597713Y-78977320D02*
X166597713Y-77351720D01*
X166140513Y-78977320D02*
X166140513Y-77351720D01*
X166140513Y-77351720D02*
X169340913Y-77351720D01*
X169340913Y-77351720D02*
X169340913Y-78977320D01*
X169340913Y-78977320D02*
X166140513Y-78977320D01*
%TO.C,R32*%
X164033200Y-75209400D02*
X160832800Y-75209400D01*
X164033200Y-73583800D02*
X164033200Y-75209400D01*
X160832800Y-73583800D02*
X164033200Y-73583800D01*
X160832800Y-75209400D02*
X160832800Y-73583800D01*
X161290000Y-75209400D02*
X161290000Y-73583800D01*
X163576000Y-73583800D02*
X163576000Y-75209400D01*
%TO.C,U9*%
X169414571Y-80793422D02*
X168017571Y-80793422D01*
X169414571Y-83790622D02*
X169414571Y-80793422D01*
X168017571Y-83790622D02*
X169414571Y-83790622D01*
X168017571Y-80793422D02*
X168017571Y-83790622D01*
X169414571Y-81339522D02*
X170074971Y-81339522D01*
X169414571Y-83244522D02*
X170074971Y-83244522D01*
X169414571Y-82292022D02*
X170074971Y-82292022D01*
X168017571Y-81339522D02*
X167357171Y-81339522D01*
X168017571Y-83244522D02*
X167357171Y-83244522D01*
X169414571Y-81288722D02*
X168919271Y-80793422D01*
X169414571Y-81441122D02*
X168766871Y-80793422D01*
%TO.C,BAT1*%
D14*
X191842571Y-74567142D02*
X191624857Y-74639714D01*
X191552285Y-74712285D01*
X191479714Y-74857428D01*
X191479714Y-75075142D01*
X191552285Y-75220285D01*
X191624857Y-75292857D01*
X191770000Y-75365428D01*
X192350571Y-75365428D01*
X192350571Y-73841428D01*
X191842571Y-73841428D01*
X191697428Y-73914000D01*
X191624857Y-73986571D01*
X191552285Y-74131714D01*
X191552285Y-74276857D01*
X191624857Y-74422000D01*
X191697428Y-74494571D01*
X191842571Y-74567142D01*
X192350571Y-74567142D01*
X190899142Y-74930000D02*
X190173428Y-74930000D01*
X191044285Y-75365428D02*
X190536285Y-73841428D01*
X190028285Y-75365428D01*
X189738000Y-73841428D02*
X188867142Y-73841428D01*
X189302571Y-75365428D02*
X189302571Y-73841428D01*
X187560857Y-75365428D02*
X188431714Y-75365428D01*
X187996285Y-75365428D02*
X187996285Y-73841428D01*
X188141428Y-74059142D01*
X188286571Y-74204285D01*
X188431714Y-74276857D01*
X192749714Y-76254428D02*
X191806285Y-76254428D01*
X192314285Y-76835000D01*
X192096571Y-76835000D01*
X191951428Y-76907571D01*
X191878857Y-76980142D01*
X191806285Y-77125285D01*
X191806285Y-77488142D01*
X191878857Y-77633285D01*
X191951428Y-77705857D01*
X192096571Y-77778428D01*
X192532000Y-77778428D01*
X192677142Y-77705857D01*
X192749714Y-77633285D01*
X191080571Y-77705857D02*
X191080571Y-77778428D01*
X191153142Y-77923571D01*
X191225714Y-77996142D01*
X190572571Y-76254428D02*
X189556571Y-76254428D01*
X190209714Y-77778428D01*
X189193714Y-76254428D02*
X188685714Y-77778428D01*
X188177714Y-76254428D01*
%TO.C,C17*%
D15*
X173914707Y-85784327D02*
X173938534Y-85760499D01*
X173962362Y-85689016D01*
X173962362Y-85641361D01*
X173938534Y-85569878D01*
X173890879Y-85522223D01*
X173843224Y-85498395D01*
X173747913Y-85474568D01*
X173676430Y-85474568D01*
X173581120Y-85498395D01*
X173533465Y-85522223D01*
X173485810Y-85569878D01*
X173461982Y-85641361D01*
X173461982Y-85689016D01*
X173485810Y-85760499D01*
X173509637Y-85784327D01*
X173962362Y-86260879D02*
X173962362Y-85974948D01*
X173962362Y-86117913D02*
X173461982Y-86117913D01*
X173533465Y-86070258D01*
X173581120Y-86022603D01*
X173604948Y-85974948D01*
X173461982Y-86427672D02*
X173461982Y-86761259D01*
X173962362Y-86546810D01*
X173692275Y-83244085D02*
X174025862Y-83244085D01*
X173501654Y-83124947D02*
X173859069Y-83005809D01*
X173859069Y-83315568D01*
X174002034Y-83530016D02*
X174025862Y-83530016D01*
X174073517Y-83506189D01*
X174097345Y-83482361D01*
X173525482Y-83696810D02*
X173525482Y-84030396D01*
X174025862Y-83815948D01*
X173692275Y-84435466D02*
X174025862Y-84435466D01*
X173692275Y-84221017D02*
X173954379Y-84221017D01*
X174002034Y-84244845D01*
X174025862Y-84292500D01*
X174025862Y-84363983D01*
X174002034Y-84411638D01*
X173978207Y-84435466D01*
X173763758Y-84840535D02*
X173763758Y-84673742D01*
X174025862Y-84673742D02*
X173525482Y-84673742D01*
X173525482Y-84912018D01*
%TO.C,C18*%
X171081707Y-89062327D02*
X171105534Y-89038499D01*
X171129362Y-88967016D01*
X171129362Y-88919361D01*
X171105534Y-88847878D01*
X171057879Y-88800223D01*
X171010224Y-88776395D01*
X170914913Y-88752568D01*
X170843430Y-88752568D01*
X170748120Y-88776395D01*
X170700465Y-88800223D01*
X170652810Y-88847878D01*
X170628982Y-88919361D01*
X170628982Y-88967016D01*
X170652810Y-89038499D01*
X170676637Y-89062327D01*
X171129362Y-89538879D02*
X171129362Y-89252948D01*
X171129362Y-89395913D02*
X170628982Y-89395913D01*
X170700465Y-89348258D01*
X170748120Y-89300603D01*
X170771948Y-89252948D01*
X170843430Y-89824810D02*
X170819603Y-89777155D01*
X170795775Y-89753328D01*
X170748120Y-89729500D01*
X170724292Y-89729500D01*
X170676637Y-89753328D01*
X170652810Y-89777155D01*
X170628982Y-89824810D01*
X170628982Y-89920121D01*
X170652810Y-89967776D01*
X170676637Y-89991604D01*
X170724292Y-90015431D01*
X170748120Y-90015431D01*
X170795775Y-89991604D01*
X170819603Y-89967776D01*
X170843430Y-89920121D01*
X170843430Y-89824810D01*
X170867258Y-89777155D01*
X170891086Y-89753328D01*
X170938741Y-89729500D01*
X171034051Y-89729500D01*
X171081707Y-89753328D01*
X171105534Y-89777155D01*
X171129362Y-89824810D01*
X171129362Y-89920121D01*
X171105534Y-89967776D01*
X171081707Y-89991604D01*
X171034051Y-90015431D01*
X170938741Y-90015431D01*
X170891086Y-89991604D01*
X170867258Y-89967776D01*
X170843430Y-89920121D01*
X171125384Y-91118154D02*
X171125384Y-90832223D01*
X171125384Y-90975189D02*
X170625004Y-90975189D01*
X170696487Y-90927533D01*
X170744142Y-90879878D01*
X170767970Y-90832223D01*
X170791797Y-91547051D02*
X171125384Y-91547051D01*
X170791797Y-91332603D02*
X171053901Y-91332603D01*
X171101556Y-91356430D01*
X171125384Y-91404086D01*
X171125384Y-91475569D01*
X171101556Y-91523224D01*
X171077729Y-91547051D01*
X170863280Y-91952121D02*
X170863280Y-91785328D01*
X171125384Y-91785328D02*
X170625004Y-91785328D01*
X170625004Y-92023604D01*
%TO.C,C27*%
X165847072Y-115274107D02*
X165870900Y-115297934D01*
X165942383Y-115321762D01*
X165990038Y-115321762D01*
X166061521Y-115297934D01*
X166109176Y-115250279D01*
X166133004Y-115202624D01*
X166156831Y-115107313D01*
X166156831Y-115035830D01*
X166133004Y-114940520D01*
X166109176Y-114892865D01*
X166061521Y-114845210D01*
X165990038Y-114821382D01*
X165942383Y-114821382D01*
X165870900Y-114845210D01*
X165847072Y-114869037D01*
X165656451Y-114869037D02*
X165632624Y-114845210D01*
X165584969Y-114821382D01*
X165465830Y-114821382D01*
X165418175Y-114845210D01*
X165394348Y-114869037D01*
X165370520Y-114916692D01*
X165370520Y-114964348D01*
X165394348Y-115035830D01*
X165680279Y-115321762D01*
X165370520Y-115321762D01*
X165203727Y-114821382D02*
X164870140Y-114821382D01*
X165084589Y-115321762D01*
%TO.C,D3*%
D16*
X165089900Y-89304162D02*
X164691120Y-89304162D01*
X164691120Y-89399110D01*
X164710110Y-89456078D01*
X164748089Y-89494057D01*
X164786068Y-89513047D01*
X164862026Y-89532036D01*
X164918994Y-89532036D01*
X164994952Y-89513047D01*
X165032931Y-89494057D01*
X165070910Y-89456078D01*
X165089900Y-89399110D01*
X165089900Y-89304162D01*
X164691120Y-89664963D02*
X164691120Y-89911827D01*
X164843036Y-89778900D01*
X164843036Y-89835869D01*
X164862026Y-89873848D01*
X164881015Y-89892837D01*
X164918994Y-89911827D01*
X165013942Y-89911827D01*
X165051921Y-89892837D01*
X165070910Y-89873848D01*
X165089900Y-89835869D01*
X165089900Y-89721931D01*
X165070910Y-89683952D01*
X165051921Y-89664963D01*
X164918228Y-86994455D02*
X164937218Y-87051424D01*
X164956207Y-87070413D01*
X164994186Y-87089403D01*
X165051155Y-87089403D01*
X165089134Y-87070413D01*
X165108123Y-87051424D01*
X165127113Y-87013445D01*
X165127113Y-86861529D01*
X164728333Y-86861529D01*
X164728333Y-86994455D01*
X164747323Y-87032434D01*
X164766312Y-87051424D01*
X164804291Y-87070413D01*
X164842270Y-87070413D01*
X164880249Y-87051424D01*
X164899239Y-87032434D01*
X164918228Y-86994455D01*
X164918228Y-86861529D01*
X165013176Y-87241319D02*
X165013176Y-87431214D01*
X165127113Y-87203340D02*
X164728333Y-87336267D01*
X165127113Y-87469193D01*
X164728333Y-87545151D02*
X164728333Y-87773026D01*
X165127113Y-87659089D02*
X164728333Y-87659089D01*
X164728333Y-88076858D02*
X164728333Y-88000900D01*
X164747323Y-87962921D01*
X164766312Y-87943931D01*
X164823281Y-87905952D01*
X164899239Y-87886963D01*
X165051155Y-87886963D01*
X165089134Y-87905952D01*
X165108123Y-87924942D01*
X165127113Y-87962921D01*
X165127113Y-88038879D01*
X165108123Y-88076858D01*
X165089134Y-88095848D01*
X165051155Y-88114837D01*
X164956207Y-88114837D01*
X164918228Y-88095848D01*
X164899239Y-88076858D01*
X164880249Y-88038879D01*
X164880249Y-87962921D01*
X164899239Y-87924942D01*
X164918228Y-87905952D01*
X164956207Y-87886963D01*
X164728333Y-88361701D02*
X164728333Y-88399680D01*
X164747323Y-88437659D01*
X164766312Y-88456649D01*
X164804291Y-88475638D01*
X164880249Y-88494628D01*
X164975197Y-88494628D01*
X165051155Y-88475638D01*
X165089134Y-88456649D01*
X165108123Y-88437659D01*
X165127113Y-88399680D01*
X165127113Y-88361701D01*
X165108123Y-88323722D01*
X165089134Y-88304732D01*
X165051155Y-88285743D01*
X164975197Y-88266753D01*
X164880249Y-88266753D01*
X164804291Y-88285743D01*
X164766312Y-88304732D01*
X164747323Y-88323722D01*
X164728333Y-88361701D01*
X164728333Y-88779470D02*
X165013176Y-88779470D01*
X165070144Y-88760481D01*
X165108123Y-88722502D01*
X165127113Y-88665533D01*
X165127113Y-88627554D01*
%TO.C,D4*%
D15*
X94968362Y-80910671D02*
X94467982Y-80910671D01*
X94467982Y-81029810D01*
X94491810Y-81101292D01*
X94539465Y-81148948D01*
X94587120Y-81172775D01*
X94682430Y-81196603D01*
X94753913Y-81196603D01*
X94849224Y-81172775D01*
X94896879Y-81148948D01*
X94944534Y-81101292D01*
X94968362Y-81029810D01*
X94968362Y-80910671D01*
X94634775Y-81625500D02*
X94968362Y-81625500D01*
X94444154Y-81506362D02*
X94801569Y-81387224D01*
X94801569Y-81696983D01*
X94467982Y-82462309D02*
X94467982Y-82748240D01*
X94968362Y-82605275D02*
X94467982Y-82605275D01*
X94467982Y-82843551D02*
X94968362Y-83010344D01*
X94467982Y-83177138D01*
X94944534Y-83320103D02*
X94968362Y-83391586D01*
X94968362Y-83510724D01*
X94944534Y-83558380D01*
X94920707Y-83582207D01*
X94873051Y-83606035D01*
X94825396Y-83606035D01*
X94777741Y-83582207D01*
X94753913Y-83558380D01*
X94730086Y-83510724D01*
X94706258Y-83415414D01*
X94682430Y-83367759D01*
X94658603Y-83343931D01*
X94610948Y-83320103D01*
X94563292Y-83320103D01*
X94515637Y-83343931D01*
X94491810Y-83367759D01*
X94467982Y-83415414D01*
X94467982Y-83534552D01*
X94491810Y-83606035D01*
%TO.C,D5*%
X178280362Y-84212671D02*
X177779982Y-84212671D01*
X177779982Y-84331810D01*
X177803810Y-84403292D01*
X177851465Y-84450948D01*
X177899120Y-84474775D01*
X177994430Y-84498603D01*
X178065913Y-84498603D01*
X178161224Y-84474775D01*
X178208879Y-84450948D01*
X178256534Y-84403292D01*
X178280362Y-84331810D01*
X178280362Y-84212671D01*
X177779982Y-84951328D02*
X177779982Y-84713051D01*
X178018258Y-84689224D01*
X177994430Y-84713051D01*
X177970603Y-84760707D01*
X177970603Y-84879845D01*
X177994430Y-84927500D01*
X178018258Y-84951328D01*
X178065913Y-84975155D01*
X178185051Y-84975155D01*
X178232707Y-84951328D01*
X178256534Y-84927500D01*
X178280362Y-84879845D01*
X178280362Y-84760707D01*
X178256534Y-84713051D01*
X178232707Y-84689224D01*
X177779982Y-82716309D02*
X177779982Y-83002240D01*
X178280362Y-82859275D02*
X177779982Y-82859275D01*
X177779982Y-83097551D02*
X178280362Y-83264344D01*
X177779982Y-83431138D01*
X178256534Y-83574103D02*
X178280362Y-83645586D01*
X178280362Y-83764724D01*
X178256534Y-83812380D01*
X178232707Y-83836207D01*
X178185051Y-83860035D01*
X178137396Y-83860035D01*
X178089741Y-83836207D01*
X178065913Y-83812380D01*
X178042086Y-83764724D01*
X178018258Y-83669414D01*
X177994430Y-83621759D01*
X177970603Y-83597931D01*
X177922948Y-83574103D01*
X177875292Y-83574103D01*
X177827637Y-83597931D01*
X177803810Y-83621759D01*
X177779982Y-83669414D01*
X177779982Y-83788552D01*
X177803810Y-83860035D01*
%TO.C,Q6*%
D16*
X170455368Y-84792517D02*
X170503023Y-84768690D01*
X170550678Y-84721034D01*
X170622161Y-84649551D01*
X170669816Y-84625724D01*
X170717472Y-84625724D01*
X170693644Y-84744862D02*
X170741299Y-84721034D01*
X170788954Y-84673379D01*
X170812782Y-84578069D01*
X170812782Y-84411275D01*
X170788954Y-84315965D01*
X170741299Y-84268310D01*
X170693644Y-84244482D01*
X170598333Y-84244482D01*
X170550678Y-84268310D01*
X170503023Y-84315965D01*
X170479195Y-84411275D01*
X170479195Y-84578069D01*
X170503023Y-84673379D01*
X170550678Y-84721034D01*
X170598333Y-84744862D01*
X170693644Y-84744862D01*
X170050298Y-84244482D02*
X170145609Y-84244482D01*
X170193264Y-84268310D01*
X170217092Y-84292137D01*
X170264747Y-84363620D01*
X170288574Y-84458930D01*
X170288574Y-84649551D01*
X170264747Y-84697207D01*
X170240919Y-84721034D01*
X170193264Y-84744862D01*
X170097953Y-84744862D01*
X170050298Y-84721034D01*
X170026471Y-84697207D01*
X170002643Y-84649551D01*
X170002643Y-84530413D01*
X170026471Y-84482758D01*
X170050298Y-84458930D01*
X170097953Y-84435103D01*
X170193264Y-84435103D01*
X170240919Y-84458930D01*
X170264747Y-84482758D01*
X170288574Y-84530413D01*
D17*
X170603655Y-86857368D02*
X170603655Y-86450968D01*
X170371427Y-86857368D01*
X170371427Y-86450968D01*
X170235960Y-86450968D02*
X170003732Y-86450968D01*
X170119846Y-86857368D02*
X170119846Y-86450968D01*
X169636036Y-86857368D02*
X169771503Y-86663844D01*
X169868265Y-86857368D02*
X169868265Y-86450968D01*
X169713446Y-86450968D01*
X169674741Y-86470321D01*
X169655389Y-86489673D01*
X169636036Y-86528378D01*
X169636036Y-86586435D01*
X169655389Y-86625140D01*
X169674741Y-86644492D01*
X169713446Y-86663844D01*
X169868265Y-86663844D01*
X169248989Y-86857368D02*
X169481217Y-86857368D01*
X169365103Y-86857368D02*
X169365103Y-86450968D01*
X169403808Y-86509025D01*
X169442513Y-86547730D01*
X169481217Y-86567082D01*
X169074817Y-86857368D02*
X169074817Y-86450968D01*
X168919998Y-86450968D01*
X168881293Y-86470321D01*
X168861941Y-86489673D01*
X168842589Y-86528378D01*
X168842589Y-86586435D01*
X168861941Y-86625140D01*
X168881293Y-86644492D01*
X168919998Y-86663844D01*
X169074817Y-86663844D01*
X168591008Y-86450968D02*
X168552303Y-86450968D01*
X168513598Y-86470321D01*
X168494246Y-86489673D01*
X168474893Y-86528378D01*
X168455541Y-86605787D01*
X168455541Y-86702549D01*
X168474893Y-86779959D01*
X168494246Y-86818663D01*
X168513598Y-86838016D01*
X168552303Y-86857368D01*
X168591008Y-86857368D01*
X168629713Y-86838016D01*
X168649065Y-86818663D01*
X168668417Y-86779959D01*
X168687770Y-86702549D01*
X168687770Y-86605787D01*
X168668417Y-86528378D01*
X168649065Y-86489673D01*
X168629713Y-86470321D01*
X168591008Y-86450968D01*
X168300722Y-86489673D02*
X168281370Y-86470321D01*
X168242665Y-86450968D01*
X168145903Y-86450968D01*
X168107198Y-86470321D01*
X168087846Y-86489673D01*
X168068493Y-86528378D01*
X168068493Y-86567082D01*
X168087846Y-86625140D01*
X168320074Y-86857368D01*
X168068493Y-86857368D01*
X167700798Y-86857368D02*
X167894322Y-86857368D01*
X167894322Y-86450968D01*
X167623389Y-86450968D02*
X167391160Y-86450968D01*
X167507274Y-86857368D02*
X167507274Y-86450968D01*
X167042817Y-86857368D02*
X167275046Y-86857368D01*
X167158932Y-86857368D02*
X167158932Y-86450968D01*
X167197636Y-86509025D01*
X167236341Y-86547730D01*
X167275046Y-86567082D01*
X166655770Y-86470321D02*
X166694474Y-86450968D01*
X166752532Y-86450968D01*
X166810589Y-86470321D01*
X166849293Y-86509025D01*
X166868646Y-86547730D01*
X166887998Y-86625140D01*
X166887998Y-86683197D01*
X166868646Y-86760606D01*
X166849293Y-86799311D01*
X166810589Y-86838016D01*
X166752532Y-86857368D01*
X166713827Y-86857368D01*
X166655770Y-86838016D01*
X166636417Y-86818663D01*
X166636417Y-86683197D01*
X166713827Y-86683197D01*
%TO.C,R30*%
D15*
X173835362Y-80450327D02*
X173597086Y-80283533D01*
X173835362Y-80164395D02*
X173334982Y-80164395D01*
X173334982Y-80355016D01*
X173358810Y-80402671D01*
X173382637Y-80426499D01*
X173430292Y-80450327D01*
X173501775Y-80450327D01*
X173549430Y-80426499D01*
X173573258Y-80402671D01*
X173597086Y-80355016D01*
X173597086Y-80164395D01*
X173334982Y-80617120D02*
X173334982Y-80926879D01*
X173525603Y-80760086D01*
X173525603Y-80831569D01*
X173549430Y-80879224D01*
X173573258Y-80903051D01*
X173620913Y-80926879D01*
X173740051Y-80926879D01*
X173787707Y-80903051D01*
X173811534Y-80879224D01*
X173835362Y-80831569D01*
X173835362Y-80688603D01*
X173811534Y-80640948D01*
X173787707Y-80617120D01*
X173334982Y-81236638D02*
X173334982Y-81284293D01*
X173358810Y-81331949D01*
X173382637Y-81355776D01*
X173430292Y-81379604D01*
X173525603Y-81403431D01*
X173644741Y-81403431D01*
X173740051Y-81379604D01*
X173787707Y-81355776D01*
X173811534Y-81331949D01*
X173835362Y-81284293D01*
X173835362Y-81236638D01*
X173811534Y-81188983D01*
X173787707Y-81165155D01*
X173740051Y-81141328D01*
X173644741Y-81117500D01*
X173525603Y-81117500D01*
X173430292Y-81141328D01*
X173382637Y-81165155D01*
X173358810Y-81188983D01*
X173334982Y-81236638D01*
X173501775Y-77727568D02*
X173835362Y-77727568D01*
X173311154Y-77608430D02*
X173668569Y-77489291D01*
X173668569Y-77799050D01*
X173334982Y-77942016D02*
X173334982Y-78275603D01*
X173835362Y-78061154D01*
X173334982Y-78561534D02*
X173334982Y-78609190D01*
X173358810Y-78656845D01*
X173382637Y-78680672D01*
X173430292Y-78704500D01*
X173525603Y-78728328D01*
X173644741Y-78728328D01*
X173740051Y-78704500D01*
X173787707Y-78680672D01*
X173811534Y-78656845D01*
X173835362Y-78609190D01*
X173835362Y-78561534D01*
X173811534Y-78513879D01*
X173787707Y-78490051D01*
X173740051Y-78466224D01*
X173644741Y-78442396D01*
X173525603Y-78442396D01*
X173430292Y-78466224D01*
X173382637Y-78490051D01*
X173358810Y-78513879D01*
X173334982Y-78561534D01*
X173835362Y-79228708D02*
X173597086Y-79061914D01*
X173835362Y-78942776D02*
X173334982Y-78942776D01*
X173334982Y-79133397D01*
X173358810Y-79181052D01*
X173382637Y-79204880D01*
X173430292Y-79228708D01*
X173501775Y-79228708D01*
X173549430Y-79204880D01*
X173573258Y-79181052D01*
X173597086Y-79133397D01*
X173597086Y-78942776D01*
%TO.C,R31*%
X166665385Y-79787882D02*
X166832179Y-79549606D01*
X166951317Y-79787882D02*
X166951317Y-79287502D01*
X166760696Y-79287502D01*
X166713041Y-79311330D01*
X166689213Y-79335157D01*
X166665385Y-79382812D01*
X166665385Y-79454295D01*
X166689213Y-79501950D01*
X166713041Y-79525778D01*
X166760696Y-79549606D01*
X166951317Y-79549606D01*
X166498592Y-79287502D02*
X166188833Y-79287502D01*
X166355626Y-79478123D01*
X166284143Y-79478123D01*
X166236488Y-79501950D01*
X166212661Y-79525778D01*
X166188833Y-79573433D01*
X166188833Y-79692571D01*
X166212661Y-79740227D01*
X166236488Y-79764054D01*
X166284143Y-79787882D01*
X166427109Y-79787882D01*
X166474764Y-79764054D01*
X166498592Y-79740227D01*
X165712281Y-79787882D02*
X165998212Y-79787882D01*
X165855246Y-79787882D02*
X165855246Y-79287502D01*
X165902902Y-79358985D01*
X165950557Y-79406640D01*
X165998212Y-79430468D01*
X169557155Y-79275637D02*
X169533328Y-79251810D01*
X169485672Y-79227982D01*
X169366534Y-79227982D01*
X169318879Y-79251810D01*
X169295051Y-79275637D01*
X169271224Y-79323292D01*
X169271224Y-79370948D01*
X169295051Y-79442430D01*
X169580983Y-79728362D01*
X169271224Y-79728362D01*
X169056775Y-79728362D02*
X169056775Y-79227982D01*
X168770844Y-79728362D02*
X168985292Y-79442430D01*
X168770844Y-79227982D02*
X169056775Y-79513913D01*
%TO.C,R32*%
X164177072Y-76223162D02*
X164343866Y-75984886D01*
X164463004Y-76223162D02*
X164463004Y-75722782D01*
X164272383Y-75722782D01*
X164224728Y-75746610D01*
X164200900Y-75770437D01*
X164177072Y-75818092D01*
X164177072Y-75889575D01*
X164200900Y-75937230D01*
X164224728Y-75961058D01*
X164272383Y-75984886D01*
X164463004Y-75984886D01*
X164010279Y-75722782D02*
X163700520Y-75722782D01*
X163867313Y-75913403D01*
X163795830Y-75913403D01*
X163748175Y-75937230D01*
X163724348Y-75961058D01*
X163700520Y-76008713D01*
X163700520Y-76127851D01*
X163724348Y-76175507D01*
X163748175Y-76199334D01*
X163795830Y-76223162D01*
X163938796Y-76223162D01*
X163986451Y-76199334D01*
X164010279Y-76175507D01*
X163509899Y-75770437D02*
X163486071Y-75746610D01*
X163438416Y-75722782D01*
X163319278Y-75722782D01*
X163271623Y-75746610D01*
X163247795Y-75770437D01*
X163223968Y-75818092D01*
X163223968Y-75865748D01*
X163247795Y-75937230D01*
X163533727Y-76223162D01*
X163223968Y-76223162D01*
X161746776Y-76172362D02*
X162032708Y-76172362D01*
X161889742Y-76172362D02*
X161889742Y-75671982D01*
X161937397Y-75743465D01*
X161985052Y-75791120D01*
X162032708Y-75814948D01*
X161437017Y-75671982D02*
X161389362Y-75671982D01*
X161341707Y-75695810D01*
X161317879Y-75719637D01*
X161294051Y-75767292D01*
X161270224Y-75862603D01*
X161270224Y-75981741D01*
X161294051Y-76077051D01*
X161317879Y-76124707D01*
X161341707Y-76148534D01*
X161389362Y-76172362D01*
X161437017Y-76172362D01*
X161484672Y-76148534D01*
X161508500Y-76124707D01*
X161532328Y-76077051D01*
X161556155Y-75981741D01*
X161556155Y-75862603D01*
X161532328Y-75767292D01*
X161508500Y-75719637D01*
X161484672Y-75695810D01*
X161437017Y-75671982D01*
X160960465Y-75671982D02*
X160912810Y-75671982D01*
X160865154Y-75695810D01*
X160841327Y-75719637D01*
X160817499Y-75767292D01*
X160793671Y-75862603D01*
X160793671Y-75981741D01*
X160817499Y-76077051D01*
X160841327Y-76124707D01*
X160865154Y-76148534D01*
X160912810Y-76172362D01*
X160960465Y-76172362D01*
X161008120Y-76148534D01*
X161031948Y-76124707D01*
X161055775Y-76077051D01*
X161079603Y-75981741D01*
X161079603Y-75862603D01*
X161055775Y-75767292D01*
X161031948Y-75719637D01*
X161008120Y-75695810D01*
X160960465Y-75671982D01*
X160579223Y-76172362D02*
X160579223Y-75671982D01*
X160293291Y-76172362D02*
X160507740Y-75886430D01*
X160293291Y-75671982D02*
X160579223Y-75957913D01*
%TO.C,U9*%
D16*
X170751741Y-80116982D02*
X170751741Y-80522051D01*
X170727914Y-80569707D01*
X170704086Y-80593534D01*
X170656431Y-80617362D01*
X170561120Y-80617362D01*
X170513465Y-80593534D01*
X170489638Y-80569707D01*
X170465810Y-80522051D01*
X170465810Y-80116982D01*
X170203706Y-80617362D02*
X170108396Y-80617362D01*
X170060740Y-80593534D01*
X170036913Y-80569707D01*
X169989258Y-80498224D01*
X169965430Y-80402913D01*
X169965430Y-80212292D01*
X169989258Y-80164637D01*
X170013085Y-80140810D01*
X170060740Y-80116982D01*
X170156051Y-80116982D01*
X170203706Y-80140810D01*
X170227534Y-80164637D01*
X170251361Y-80212292D01*
X170251361Y-80331430D01*
X170227534Y-80379086D01*
X170203706Y-80402913D01*
X170156051Y-80426741D01*
X170060740Y-80426741D01*
X170013085Y-80402913D01*
X169989258Y-80379086D01*
X169965430Y-80331430D01*
X166513328Y-80661328D02*
X166056128Y-80661328D01*
X166382700Y-80813728D01*
X166056128Y-80966128D01*
X166513328Y-80966128D01*
X166469785Y-81445100D02*
X166491557Y-81423328D01*
X166513328Y-81358014D01*
X166513328Y-81314471D01*
X166491557Y-81249157D01*
X166448014Y-81205614D01*
X166404471Y-81183842D01*
X166317385Y-81162071D01*
X166252071Y-81162071D01*
X166164985Y-81183842D01*
X166121442Y-81205614D01*
X166077900Y-81249157D01*
X166056128Y-81314471D01*
X166056128Y-81358014D01*
X166077900Y-81423328D01*
X166099671Y-81445100D01*
X166513328Y-81641042D02*
X166056128Y-81641042D01*
X166056128Y-81815214D01*
X166077900Y-81858757D01*
X166099671Y-81880528D01*
X166143214Y-81902300D01*
X166208528Y-81902300D01*
X166252071Y-81880528D01*
X166273842Y-81858757D01*
X166295614Y-81815214D01*
X166295614Y-81641042D01*
X166056128Y-82054700D02*
X166056128Y-82359500D01*
X166513328Y-82163557D01*
X166056128Y-82490128D02*
X166056128Y-82773157D01*
X166230300Y-82620757D01*
X166230300Y-82686071D01*
X166252071Y-82729614D01*
X166273842Y-82751385D01*
X166317385Y-82773157D01*
X166426242Y-82773157D01*
X166469785Y-82751385D01*
X166491557Y-82729614D01*
X166513328Y-82686071D01*
X166513328Y-82555442D01*
X166491557Y-82511900D01*
X166469785Y-82490128D01*
X166252071Y-83034414D02*
X166230300Y-82990871D01*
X166208528Y-82969100D01*
X166164985Y-82947328D01*
X166143214Y-82947328D01*
X166099671Y-82969100D01*
X166077900Y-82990871D01*
X166056128Y-83034414D01*
X166056128Y-83121500D01*
X166077900Y-83165042D01*
X166099671Y-83186814D01*
X166143214Y-83208585D01*
X166164985Y-83208585D01*
X166208528Y-83186814D01*
X166230300Y-83165042D01*
X166252071Y-83121500D01*
X166252071Y-83034414D01*
X166273842Y-82990871D01*
X166295614Y-82969100D01*
X166339157Y-82947328D01*
X166426242Y-82947328D01*
X166469785Y-82969100D01*
X166491557Y-82990871D01*
X166513328Y-83034414D01*
X166513328Y-83121500D01*
X166491557Y-83165042D01*
X166469785Y-83186814D01*
X166426242Y-83208585D01*
X166339157Y-83208585D01*
X166295614Y-83186814D01*
X166273842Y-83165042D01*
X166252071Y-83121500D01*
X166056128Y-83360985D02*
X166056128Y-83644014D01*
X166230300Y-83491614D01*
X166230300Y-83556928D01*
X166252071Y-83600471D01*
X166273842Y-83622242D01*
X166317385Y-83644014D01*
X166426242Y-83644014D01*
X166469785Y-83622242D01*
X166491557Y-83600471D01*
X166513328Y-83556928D01*
X166513328Y-83426300D01*
X166491557Y-83382757D01*
X166469785Y-83360985D01*
X166513328Y-84079442D02*
X166513328Y-83818185D01*
X166513328Y-83948814D02*
X166056128Y-83948814D01*
X166121442Y-83905271D01*
X166164985Y-83861728D01*
X166186757Y-83818185D01*
%TD*%
M02*
